<svg xmlns="http://www.w3.org/2000/svg" xmlns:xlink="http://www.w3.org/1999/xlink" fill="#ff0000" version="1.1" x="0px" y="0px" viewBox="0 0 95 100" enable-background="new 0 0 98 98" xml:space="preserve"><path d="M11.225,43.195c0.266,1.068,0.531,1.934,0.8,2.599c0.265,0.533,0.666,1.468,1.199,2.798c0.132,0.534,0.3,1,0.5,1.398  c0.2,0.4,0.431,0.869,0.7,1.4c0.266,0.534,0.531,0.998,0.799,1.398c0.266,0.4,0.531,0.8,0.799,1.2c0,0.267,0.066,0.467,0.2,0.601  v0.198c0,0.4,0.032,0.8,0.1,1.198c0.065,0.4,0.1,0.801,0.1,1.2c0.131,0.134,0.2,0.269,0.2,0.4c0,0.134,0.065,0.334,0.2,0.601  l-0.4-0.4c-0.268-0.267-0.468-0.432-0.599-0.5c-0.134-0.066-0.269-0.23-0.4-0.5l-0.8-0.4c-0.4,0-0.334,0.733,0.2,2.199  c0.131,0.668,0.331,1.398,0.6,2.198c0.266,0.269,0.465,0.501,0.599,0.7c0.132,0.2,0.266,0.434,0.4,0.7  c0.131,0.134,0.265,1.067,0.4,2.798c0.131,1.733,0.231,3.631,0.299,5.696c0.066,2.067,0.166,3.933,0.3,5.597  c0.131,1.667,0.265,2.567,0.4,2.697c0-2.797,0.065-5.328,0.199-7.595c0.131-1.864,0.2-3.628,0.2-5.295  c0-1.666,0.066-2.501,0.2-2.501v0.2l1.999,1.801v0.6c0,0.267-0.034,0.499-0.1,0.698c-0.068,0.2-0.034,0.436,0.1,0.699v1.8  c0,0.134,0.131,0.269,0.399,0.4c0.131,0.134,0.3,0.233,0.5,0.3c0.2,0.067,0.431,0.167,0.699,0.299c0.132,0.135,0.266,0.235,0.4,0.3  c0.131,0.068,0.265,0.169,0.399,0.301v1.198c-0.134,0.4-0.199,0.7-0.199,0.9s-0.069,0.434-0.2,0.7l-0.2,0.398h0.599  c0.266,0,0.531,0.035,0.8,0.1c0.265,0.068,0.6,0.101,1,0.101v0.399h0.199h0.799c0.398,0.115,0.798,0.289,1.197,0.501l-7.393,8.894  c1.065-1.065,2.199-2.264,3.397-3.598c1.065-1.065,2.199-2.33,3.398-3.798c0.338-0.413,0.694-0.826,1.044-1.24  c0.373,0.23,0.748,0.497,1.122,0.813c-2.291,2.713-4.743,5.582-7.363,8.623l7.89-8.116c0.407,0.382,0.709,0.624,0.905,0.721  c0.132,0.133,0.266,0.2,0.4,0.2c0.265,0.398,0.499,0.798,0.699,1.196c0.2,0.4,0.431,0.735,0.699,1.001  c1.331,1.6,1.999,2.733,1.999,3.397c0,0.27,0.531,0.6,1.6,1l1.199,0.601c0.8,0.267,1.33,0.399,1.6,0.399  c0.93,0.267,1.564,0.367,1.899,0.299c0.331-0.065-0.169-0.432-1.5-1.099c-0.669-0.132-1.134-0.4-1.399-0.801  c-0.269-0.13-0.6-0.399-1-0.8c-0.534-0.53-0.799-0.999-0.799-1.397c1.064,0.534,1.799,0.867,2.198,0.999  c0.665,0.269,1.299,0.469,1.899,0.599c0.6,0.135,1.231,0.335,1.898,0.6c1.331,0.271,2.265,0.4,2.798,0.4h1l0.2,0.2  c0.266,0,0.531,0.068,0.799,0.2c0.531,0.269,1,0.469,1.399,0.6c0.265,0.268,0.531,0.4,0.799,0.4c0.266,0,0.531,0.066,0.8,0.198  c0.131,0.136,0.331,0.2,0.6,0.2h0.199h0.6h1.399c0.266-0.132,0.601-0.2,0.999-0.2c0.4,0,0.801-0.064,1.199-0.198  c0.399,0,0.731-0.066,1-0.2c0.53,0,0.93-0.066,1.2-0.2l1.325-0.333l0.472,5.929l0.037-6.056l0.563-0.14  c0.53-0.132,1.2-0.332,1.999-0.601c0.798-0.265,1.265-0.399,1.398-0.399c0.132-0.131,0.267-0.2,0.4-0.2c0.132,0,0.331-0.065,0.6-0.2  c0.266-0.13,0.466-0.23,0.601-0.3c0.13-0.063,0.33-0.164,0.6-0.299c0.264-0.132,0.599-0.231,0.999-0.3  c0.398-0.065,0.799-0.232,1.198-0.499c0.268-0.267,0.631-0.5,1.101-0.7c0.464-0.2,0.898-0.432,1.299-0.7  c0.532-0.267,0.999-0.564,1.398-0.9c0.4-0.33,0.865-0.63,1.4-0.898c0.224-0.225,0.45-0.394,0.677-0.524  c0.007,0.008,0.014,0.017,0.022,0.024c0.6,0.601,1.43,0.969,2.499,1.099c0.399,0,0.729,0.07,1,0.2c-0.271,0.535-0.4,1-0.4,1.4  c-0.135,1.067,0.065,1.267,0.599,0.601c0.532-0.667,0.999-0.933,1.398-0.801c0.667,0.4,1.067,0.669,1.2,0.801l0.4,0.798h0.2  c0.4,0,0.73,0.068,0.999,0.2c1.064,0.799,1.83,1.469,2.299,1.999c0.465,0.533,0.5,0.469,0.1-0.2l-0.2-0.2  c0.13,0.134,0.2,0.17,0.2,0.101c0-0.067-0.135-0.23-0.4-0.5c-0.533-0.801-0.668-1.6-0.399-2.397c0.132-0.4,0.267-0.667,0.399-0.801  c-0.268,0-0.533-0.13-0.8-0.399c-0.667-0.266-0.867-0.73-0.601-1.399c0-0.265,0.234-0.6,0.7-0.998c0.467-0.4,0.9-0.768,1.301-1.101  c0.4-0.33,0.63-0.565,0.7-0.7c0.063-0.13-0.3-0.13-1.101,0c-0.934,0.271-1.767,0.533-2.499,0.8  c-0.733,0.269-1.368,0.469-1.898,0.601c-0.269-0.532-0.4-0.867-0.4-1c-0.267-0.801-0.533-1.399-0.799-1.799  c0.254-0.382,0.41-0.665,0.484-0.865c0.034-0.047,0.08-0.087,0.114-0.134c0.667-0.667,1.131-1.2,1.4-1.601  c0.266-0.265,0.665-0.798,1.199-1.597c0.399-0.532,0.765-1.101,1.099-1.7c0.332-0.601,0.7-1.164,1.1-1.699  c0.266-0.4,0.53-0.999,0.801-1.799c0.265-0.267,0.43-0.565,0.5-0.9c0.063-0.33,0.23-0.63,0.498-0.898  c0.266-0.665,0.466-1.266,0.601-1.799c0.132-0.53,0.332-1.13,0.599-1.801c0.132-0.663,0.231-1.23,0.3-1.697  c0.067-0.467,0.167-0.967,0.3-1.5c0.268-1.33,0.4-2.264,0.4-2.798c0.13-0.267,0.2-0.665,0.2-1.2v-0.998v-1  c0,0.268-0.035,0.568-0.1,0.899c-0.07,0.335-0.101,0.769-0.101,1.299c0,0.67-0.07,1.2-0.2,1.601c0,0.667-0.068,1.267-0.2,1.797  c0,0.271-0.133,0.934-0.399,2.001c-0.269,1.066-0.534,1.797-0.799,2.197c-1.068,3.468-2.732,6.797-4.996,9.996  c-0.79,1.01-1.69,1.99-2.641,2.956c-0.144-0.057-0.32-0.11-0.559-0.159h-0.599c-0.087-0.119-0.172-0.222-0.257-0.333  c0.79-0.792,1.547-1.608,2.254-2.464c0.8-1.067,1.33-1.865,1.601-2.4c0.398-0.53,0.863-1.331,1.396-2.397  c0.4-0.801,0.768-1.601,1.101-2.399c0.33-0.799,0.63-1.53,0.9-2.199c0.53-1.33,0.931-2.729,1.198-4.197  c0.132-0.266,0.2-0.53,0.2-0.801c0-0.263,0.065-0.529,0.2-0.798c0-0.266,0.032-0.532,0.101-0.799c0.064-0.267,0.1-0.532,0.1-0.8  v-1.001c0,0.271-0.035,0.57-0.1,0.9c-0.068,0.334-0.101,0.7-0.101,1.101c-0.269,1.066-0.469,1.932-0.6,2.598  c-0.269,0.934-0.568,1.934-0.899,2.997c-0.335,1.068-0.833,2.134-1.5,3.199c-0.134,0.269-0.267,0.533-0.4,0.799  c-0.133,0.27-0.267,0.535-0.398,0.8c-0.135,0.269-0.269,0.533-0.399,0.801c-0.136,0.267-0.336,0.533-0.599,0.798  c-0.271,0.269-0.436,0.535-0.5,0.801c-0.07,0.269-0.235,0.533-0.501,0.798l-1.2,1.601l-0.599,0.601l-0.6,0.799  c-0.425,0.318-0.795,0.691-1.134,1.092c-0.422-0.467-0.844-0.841-1.266-1.092l0.2-0.799H72.79l-0.2-0.2  c-0.4-0.267-0.735-0.667-0.999-1.2c-0.535-0.801-0.8-1.464-0.8-1.999c0.13-0.265,0-0.498-0.4-0.698s-0.8-0.367-1.2-0.5v-1.601  l-2.798-0.799v-2.799l-2.396-0.801l-0.601-2.997l-1.801,1.601l-0.998-2.999l-0.999,0.199l0.4-0.798l-0.601-0.601l3.397-2.799  l-4.397-0.799l3.397-3.798l0.2,0.2v-0.2l7.195-4.398l0.601,18.189l1-31.781c0.53,0.269,1,0.399,1.398,0.399  c0.132,0,0.332,0.4,0.601,1.199c0.265,0.8,0.498,1.733,0.698,2.798c0.2,1.068,0.367,2.167,0.5,3.298  c0.132,1.134,0.267,2.098,0.4,2.898c0-1.065,0-2.331,0-3.798c0-1.465,0.066-2.929,0.2-4.397c0.043-0.531,0.087-1.118,0.132-1.693  c1.137,1.076,2.229,1.917,3.266,2.493c0.267,0.134,0.5,0.268,0.7,0.4c0.2,0.134,0.43,0.334,0.7,0.6c-0.135,0.4-0.2,1.133-0.2,2.199  c-0.135,0.799-0.135,1.268,0,1.399c0.13,0.135,0.33,0.135,0.599,0c0.265-0.131,0.565-0.299,0.9-0.5c0.332-0.2,0.63-0.1,0.898,0.3  c0.132,0.134,0.4,0.533,0.8,1.198c0.13,0.27,0.23,0.535,0.301,0.8c0.064,0.269,0.165,0.534,0.3,0.799c0,0.134,0.03,0.234,0.1,0.299  c0.065,0.069,0.101,0.169,0.101,0.3v0.6l0.2,0.399l0.199,0.2c0.131,0.134,0.199,0.234,0.199,0.3c0,0.068,0.131,0.234,0.399,0.5  c0.132,0,0.2,0.069,0.2,0.2c0,0.269,0.065,0.399,0.2,0.399c0.132,0.269,0.198,0.468,0.198,0.6c0,0.134,0.066,0.334,0.2,0.6  c0,0.268,0.033,0.534,0.101,0.799c0.066,0.269,0.1,0.534,0.1,0.8c0.132,0.399,0.2,0.934,0.2,1.599c0.132,0.399,0.2,0.799,0.2,1.2  c0,0.399,0.066,0.733,0.199,0.999v-0.6c0-0.131,0.067-0.265,0.2-0.399v-0.4v-0.599v-0.6v-1.599c0.13-0.665,0.33-1.399,0.601-2.199  c0-0.399,0.13-0.73,0.4-1l0.199-0.2c0-0.131-0.069-0.331-0.199-0.599c-0.271-0.531-0.4-0.93-0.4-1.2  c-0.271-0.799-0.471-1.33-0.601-1.599c-0.133-0.4-0.2-1-0.2-1.799c0-0.531,0.301-0.865,0.9-1c0.601-0.131,1.099-0.331,1.499-0.599  c0.532-0.132,0.83-0.3,0.898-0.5c0.067-0.2-0.434-0.631-1.499-1.299c-0.934-0.399-1.932-0.73-2.997-1  c-1.068-0.265-1.799-0.399-2.199-0.399c-0.133,0-0.233-0.032-0.3-0.1c-0.068-0.065-0.168-0.1-0.3-0.1l-0.601-1.2l-0.599-1.199  c-0.399-1.065-1.134-2.265-2.198-3.599c0.265-0.531,0.399-0.93,0.399-1.199c-0.1-0.198-0.263-0.372-0.456-0.534  c0.741-0.636,1.429-1.35,2.055-2.165c0.666-0.865,0.999-1.83,0.999-2.898c0-0.399,0.066-0.73,0.2-1c0.267,0,0.5,0.035,0.7,0.1  c0.2,0.069,0.43,0.1,0.7,0.1c0.53,0,0.799-0.066,0.799-0.2c0-0.131-0.101-0.299-0.299-0.499c-0.2-0.2-0.436-0.4-0.7-0.6  c-0.271-0.199-0.4-0.431-0.4-0.7c0-0.265,0.266-0.665,0.801-1.199l0.599-0.6v-0.2c0-0.131-0.035-0.265-0.101-0.399  c-0.068-0.132-0.035-0.332,0.101-0.6c0.665-1.064,1.265-1.899,1.799-2.499c0.529-0.6,0.467-0.631-0.2-0.1l-0.2,0.2  c0.132-0.266,0-0.2-0.4,0.2c-0.533,0.399-0.998,0.633-1.396,0.699c-0.4,0.068-0.735,0.1-1.001,0.1c-0.399,0-0.668-0.132-0.8-0.4  l-0.4,0.799c-0.4,0.668-0.799,1-1.198,1c-0.269,0-0.634-0.2-1.099-0.6c-0.471-0.4-0.869-0.799-1.2-1.199  c-0.334-0.399-0.601-0.631-0.801-0.7c-0.198-0.065-0.167,0.3,0.101,1.1c0.399,1.068,0.8,1.899,1.2,2.498  c0.399,0.6,0.729,1.234,1,1.899c-0.535,0.269-0.934,0.4-1.2,0.4c-0.667,0.268-1.199,0.599-1.599,1  c-0.934-0.531-1.334-0.331-1.199,0.599v0.599c-0.27,0.4-0.569,0.8-0.9,1.2c-0.3,0.358-0.56,0.716-0.805,1.075  c-0.035-0.027-0.061-0.049-0.095-0.075c-0.268-0.131-0.467-0.265-0.599-0.399c-0.136-0.132-0.335-0.266-0.601-0.4  c-0.533-0.265-0.868-0.465-0.998-0.6l-0.801-0.4c-0.133-0.131-0.2-0.4-0.2-0.799v-0.4h-0.399c-0.134,0-0.268,0.035-0.4,0.1  c-0.134,0.069-0.267,0.1-0.398,0.1h-0.801c-0.135,0-0.268-0.066-0.398-0.2l-0.399-0.199c0-0.131-0.07-0.2-0.2-0.2  c-0.4,0-0.669-0.066-0.801-0.2c-0.133-0.131-0.468-0.331-1-0.6l-1.197-0.4c-0.8-0.531-1.6-0.931-2.4-1.2  c-0.799-0.265-1.334-0.531-1.597-0.799c-0.535-0.265-1.001-0.465-1.4-0.599h-1.999c-0.269,0-0.499,0.034-0.698,0.1  c-0.2,0.068-0.436,0.099-0.7,0.099c-0.271-0.131-0.434-0.199-0.501-0.199c-0.068,0-0.233-0.066-0.5-0.2  c-0.667-0.132-1.066-0.331-1.198-0.6c-0.135-0.131-0.269-0.199-0.4-0.199c0,0.134-0.068,0.199-0.198,0.199h-0.801l-1.799,0.6  c-0.533,0.134-1.198,0.334-1.999,0.6l-0.799,0.4c-0.269-0.132-0.535-0.2-0.8-0.2c-0.268,0-0.568,0-0.899,0  c-0.334,0-0.634-0.066-0.899-0.2c-0.534-0.131-1.199-0.2-1.999-0.2h-0.799h-0.2c-0.134,0-0.2,0.035-0.2,0.1  c0,0.069-0.068,0.1-0.2,0.1c-0.268,0.268-0.533,0.4-0.799,0.4c-0.268,0.269-0.534,0.468-0.799,0.599  c-0.269,0.269-0.499,0.469-0.699,0.601c-0.2,0.134-0.435,0.268-0.7,0.399c-0.269,0.134-0.469,0.269-0.6,0.4h-0.2  c-0.134,0.134-0.399,0.2-0.799,0.2c-0.269,0.134-0.569,0.199-0.899,0.199c-0.334,0-0.7,0.069-1.1,0.2  c-0.534,0.134-1.2,0.334-1.999,0.6c-0.269,0.134-0.533,0.199-0.799,0.199h-0.2l1.2,2.199c0,0.134-0.068,0.2-0.2,0.2  c-0.134,0-0.269,0.034-0.399,0.1c-0.134,0.068-0.269,0.1-0.4,0.1c-0.668,0.269-1.333,0.6-1.999,1l-0.562,0.281L17.622,8.615  c0.93,1.2,1.999,2.467,3.198,3.798c1.065,1.199,2.199,2.533,3.398,3.998c1.199,1.468,2.464,2.933,3.797,4.398  c0.189,0.208,0.368,0.423,0.555,0.633c-0.12,0.112-0.239,0.208-0.354,0.266c-0.134,0.068-0.269,0.168-0.4,0.299  c-0.119,0.059-0.236,0.1-0.353,0.132c-0.419-0.446-0.819-0.882-1.246-1.331c-2.932-3.198-6.065-6.728-9.394-10.594l9.994,12.943  v0.249v0.2h-0.799h-0.4l-0.399,0.399c-0.4,0.4-0.668,0.734-0.799,0.999l-0.4,0.4v-0.2l-2.798-3.198c0,0.134-0.068,0.269-0.2,0.4  c-0.268,0.269-0.399,0.6-0.399,1c-0.27,0.399-0.469,0.868-0.601,1.399c-0.134,0.534-0.334,1.068-0.599,1.6  c-0.269,0.668-0.468,1.268-0.599,1.799c-0.135,0.534-0.27,1-0.4,1.398c-0.134,0.27-0.2,0.6-0.2,1v0.4l-1.199-0.4  c-1.068-0.265-1.933-0.465-2.598-0.599c-1.334-0.265-2.199-0.465-2.598-0.6c-0.535-0.131-0.935-0.2-1.2-0.2  c0.131,0.134,0.2,0.268,0.2,0.399c0,0.535,0.065,0.935,0.2,1.2c0.399,0.799,0.8,1.799,1.199,2.998c0.266,0.535,0.531,1.034,0.8,1.5  c0.265,0.468,0.53,0.899,0.799,1.298l0.6,1.2l-2.598-1.399v0.6c0.131,0.134,0.2,0.3,0.2,0.499c0,0.2,0.065,0.435,0.199,0.7  c0.132,0.668,0.266,1.333,0.4,1.999c0.131,0.667,0.331,1.333,0.599,1.998c0.266,0.668,0.466,1.299,0.6,1.899  c0.131,0.6,0.331,1.168,0.6,1.7c0.266,0.533,0.465,0.868,0.599,1c0.132,0.134,0.2,0.268,0.2,0.399l-0.799-0.799  c-0.269-0.265-0.535-0.599-0.799-1c-0.269-0.399-0.535-0.799-0.8-1.199c-0.799-1.064-1.333-1.799-1.6-2.198l-0.399-0.8l-0.2-0.399  v0.2c0,0.269,0.066,0.469,0.2,0.6C10.826,41.864,10.957,42.396,11.225,43.195z M30.717,73.58c-0.001-0.002-0.002-0.002-0.003-0.002  c-0.2-0.132-0.434-0.332-0.699-0.601c-0.104-0.103-0.172-0.203-0.262-0.305c0.089-0.099,0.172-0.196,0.262-0.295  c1.464-1.464,2.798-2.93,3.998-4.398c1.2-1.463,2.33-2.729,3.398-3.797c2.13-2.397,3.329-3.598,3.598-3.598v0.199  c-0.668,0.934-2.034,2.698-4.098,5.299C34.993,68.492,32.919,70.997,30.717,73.58z M35.611,76.176  c-1.599-0.665-2.667-1.199-3.199-1.599c-0.373,0-0.682-0.125-0.938-0.358l3.538-3.64l5.197-2.999l-0.199-2.998  c0.665-0.265,1.264-0.6,1.799-1c1.064-0.663,1.864-1.397,2.398-2.197c0.067-0.118,0.118-0.213,0.178-0.32  c0.007,0.244,0.015,0.472,0.022,0.721c0.017-0.269,0.022-0.557,0.038-0.83c0.366-0.669,0.562-1.104,0.562-1.271  c0-0.198,0.266-0.563,0.8-1.099c0.265-0.266,0.5,0.368,0.699,1.898c0.2,1.534,0.431,3.232,0.7,5.099  c0.266,2.396,0.465,5.064,0.6,7.995l0.199-17.392l2.599,0.4l-0.384-0.96c0-0.016,0-0.03,0-0.047l2.982-1.591l0.2,1.199  c-0.136,0.135,0.132,0.668,0.798,1.599c0.4,0.533,0.801,1,1.201,1.4l1.785,22.386h-0.387c-0.398-0.132-1.068-0.2-1.999-0.2  c-0.934,0-1.599-0.066-1.999-0.2c-0.934,0-1.533-0.066-1.799-0.199c-0.268,0-0.468-0.03-0.599-0.101c-0.134-0.064-0.334-0.1-0.6-0.1  c-0.269,0-0.469-0.065-0.6-0.2l-0.2,0.2h-0.399c-0.269,0.135-0.799,0.333-1.6,0.6c-0.534,0.269-1,0.4-1.399,0.4  c-0.268,0.134-0.468,0.2-0.6,0.2h-0.199c0-0.132-0.069-0.2-0.2-0.2c-0.4,0-0.668-0.066-0.799-0.2c-0.134-0.132-0.468-0.33-1-0.6  c-0.134,0-0.234-0.03-0.3-0.101c-0.068-0.064-0.168-0.1-0.3-0.1l-0.799-0.4c-0.399-0.264-0.833-0.53-1.299-0.799  c-0.469-0.265-0.968-0.531-1.5-0.798c-0.268-0.134-0.534-0.268-0.799-0.4c-0.269-0.132-0.534-0.267-0.799-0.4  c-0.269-0.132-0.5-0.231-0.7-0.3C36.111,76.609,35.877,76.445,35.611,76.176z M44.833,38.027c0.003-0.165,0.006-0.334,0.008-0.5  c0.055-0.109,0.109-0.218,0.164-0.329c0.132-0.266,0.266-0.531,0.4-0.8c0.065-0.134,0.132-0.25,0.2-0.35v2.075L44.833,38.027z   M44.637,45.311l2.567,2.282c-0.535,1.068-0.535,2.067,0,2.998v1.598l-2.398-0.199v1.6c-0.066,0-0.133-0.02-0.2-0.024  c0-1.761,0-3.681,0-5.771C44.606,46.976,44.625,46.14,44.637,45.311z M49.803,44.194c-0.534-0.799-0.868-1.265-0.999-1.399h0.999  V44.194z M50.002,53.589l-0.2,0.801l-0.399-1L50.002,53.589z M50.601,41.627c0.026-0.694,0.055-1.353,0.083-2.026l0.919,4.594h-0.2  l-0.799-1.799C50.939,42.285,50.924,42.023,50.601,41.627z M57.398,55.986l-1.198,0.4l1.397-0.999L57.398,55.986z M56.799,47.393  l0.4-0.2l0.798-0.2L56.799,47.393z M57.199,42.396c-0.4,0.534-0.735,0.934-0.999,1.199c-0.271,0.269-0.535,0.535-0.8,0.799H55  c0.13-0.265,0.33-0.631,0.6-1.099c0.266-0.465,0.73-1.1,1.399-1.899c0.265-0.265,0.465-0.431,0.599-0.5  c0.133-0.066,0.267-0.166,0.399-0.3C58.264,40.997,57.997,41.596,57.199,42.396z M55.6,52.989c-0.27,0-0.8-0.4-1.6-1.199  c-0.268-0.131-0.434-0.266-0.499-0.399c-0.068-0.131-0.168-0.267-0.3-0.4l0.4-0.799C54.133,50.725,54.6,51.26,55,51.79  C55.4,52.188,55.6,52.589,55.6,52.989z M52.603,84.071c-1.869,0.069-3.599-0.03-5.198-0.301c-0.534-0.13-0.968-0.229-1.299-0.3  c-0.334-0.064-0.699-0.1-1.1-0.1c-0.533-0.13-1.199-0.33-1.998-0.601c-0.269-0.13-0.568-0.198-0.9-0.198  c-0.333,0-0.633-0.065-0.899-0.2c-0.399-0.132-0.868-0.332-1.398-0.599c-1.069-0.399-1.734-0.731-1.999-1  c-0.269,0-0.4-0.031-0.4-0.1c0-0.067-0.068-0.101-0.199-0.101c-0.135,0-0.2-0.066-0.2-0.2l0.2-0.2  c0.265,0.134,0.53,0.233,0.799,0.301c0.265,0.068,0.531,0.233,0.799,0.5c0.399,0,0.865,0.133,1.399,0.4  c0.266,0.133,0.6,0.199,0.999,0.199l0.8,0.398c0.666,0.136,1.331,0.269,1.998,0.4c0.666,0.135,1.4,0.269,2.199,0.398  c3.198,0.535,6.827,0.471,10.894-0.198c0.082-0.014,0.16-0.038,0.242-0.052l0.08,1.009C55.771,83.816,54.156,84.016,52.603,84.071z   M75.987,76.775l-0.198-0.399c0.264,0.268,0.398,0.468,0.398,0.6L75.987,76.775z M71.833,77.562  c-0.542,0.407-1.068,0.817-1.643,1.212c-1.867,1.199-3.798,2.167-5.796,2.899c-1.999,0.733-3.996,1.297-5.997,1.697  c-0.12,0.024-0.233,0.035-0.354,0.059l0.005-1.062c3.71-0.73,7.23-2.104,10.543-4.192c0.815-0.512,1.593-1.053,2.353-1.605  C71.229,76.912,71.527,77.241,71.833,77.562z M69.19,68.38l1,0.601v1.599l-1.198,0.2L69.19,68.38z M58.998,58.388l0.199,0.998  l-0.6,0.599l1,0.4v0.6l1.199,0.2l0.199,0.2l0.799,1.999l1.601,0.599l0.2,0.6l0.6,0.2l0.799,1.999l0.999,0.4  c-0.267,0.269-0.434,0.498-0.5,0.698c-0.067,0.2-0.167,0.436-0.299,0.7c-0.135,0.4-0.235,1.068-0.3,1.999  c-0.068,0.934,0.231,1.334,0.898,1.198c0.4,0,1.13,0.271,2.2,0.801c0.398,0.269,0.799,0.6,1.197,1  c0.354,0.822,0.766,1.582,1.222,2.301c-0.187,0.1-0.371,0.2-0.521,0.297c-0.2,0.133-0.434,0.27-0.7,0.399  c-0.398,0.269-0.867,0.534-1.397,0.801c-0.27,0.267-0.5,0.434-0.7,0.5c-0.199,0.066-0.433,0.167-0.7,0.299  c-0.399,0.268-0.8,0.435-1.198,0.5c-0.4,0.068-0.8,0.234-1.198,0.498l-1.801,0.601l-1.199,0.399h-0.399  c-0.136,0.134-0.335,0.2-0.599,0.2h-1.2c-0.269,0-0.434,0.033-0.5,0.101c-0.04,0.04-0.127,0.063-0.237,0.08l0.137-22.566  L58.998,58.388z M58.798,46.593l-0.4-0.4l0.4-0.2l1,0.2L58.798,46.593z M61.196,45.594l-1.799-2.598l1.199-0.4  c0,0.269,0.031,0.435,0.1,0.5c0.065,0.068,0.101,0.168,0.101,0.299c0,0.134,0.064,0.2,0.199,0.2l3.398-3.598l-1.6-2.599l0.4-0.799  l0.801-0.399l0.598,0.599l0.4-1l0.599-0.2v-1.198v-0.2l2.001-1l0.399-1.6l0.599-0.399l0.2-0.6l0.398,11.394L61.196,45.594z   M60.198,38.397h0.798l0.398,1.2L60.198,38.397z M79.187,29.204l-0.601-0.6c-0.27-0.531-0.399-0.865-0.399-1  C78.717,28.404,79.052,28.938,79.187,29.204z M78.786,17.31c0.13-0.065,0.266-0.165,0.4-0.299c-0.135,0.134-0.2,0.269-0.2,0.399  c-0.135,0-0.235,0.034-0.3,0.1c-0.07,0.068-0.17,0.1-0.3,0.1C78.517,17.479,78.651,17.379,78.786,17.31z M65.793,25.805l0.4-3.997  c0.131,0.134,0.267,0.199,0.399,0.199c0.13,0.134,0.23,0.269,0.301,0.4c0.064,0.134,0.229,0.269,0.5,0.4  c0.265,0.268,0.5,0.468,0.7,0.599c0.198,0.134,0.43,0.334,0.698,0.6c0.113,0.115,0.229,0.228,0.342,0.342  c-0.014,0.024-0.028,0.032-0.042,0.058c-0.2,0.399-0.368,0.799-0.5,1.2l-1.398,0.199l-0.601,2.799l-1.233,0.284  c0.012-0.065,0.023-0.112,0.033-0.185C65.526,27.839,65.659,26.874,65.793,25.805z M60.398,16.011h1.396h0.4  c0.267,0.134,0.531,0.333,0.8,0.6c0.266,0.269,0.5,0.499,0.7,0.699s0.431,0.435,0.699,0.699c-0.136,0-0.235,0.035-0.299,0.1  c-0.07,0.069-0.17,0.1-0.3,0.1c-0.271,0.134-0.535,0.2-0.801,0.2h-0.2c-0.133,0-0.268-0.066-0.399-0.2l-1.001-1  c-0.533-0.265-0.996-0.599-1.396-1l-0.2-0.199H60.398z M51.103,29.603c0.065-2.398,0.131-4.528,0.199-6.396  c0.066-1.864,0.166-3.928,0.301-6.196c0.131,0,0.3-0.032,0.5-0.1c0.2-0.065,0.43-0.1,0.698-0.1c0.132,0,0.2-0.032,0.2-0.1  c0-0.066,0.065-0.1,0.2-0.1c0.265,0.668,0.599,1.134,0.998,1.398c0.268,0.27,0.632,0.601,1.101,1c0.465,0.4,0.9,0.734,1.299,1  c1.198,0.668,2.065,0.935,2.599,0.8c0.53-0.266,1.131-0.4,1.799-0.4c0.266,0.134,0.632,0.2,1.099,0.2s0.9,0.068,1.301,0.2  c0.13,0,0.265,0.468,0.4,1.399c0.13,0.934,0.263,1.968,0.399,3.098c0.131,1.134,0.264,2.167,0.398,3.098  c0.035,0.247,0.07,0.456,0.105,0.637l-0.703,0.163l-0.601,2.398l-2.599,0.8l1.599,1.799l-2.798,1.398l0.4,0.8L59.197,36.2  l-0.6,0.599l-1.599-16.19L55.2,38.397l-1.799-13.791l-0.799,15.591l-1.872-1.701c0.024-0.561,0.046-1.15,0.072-1.697  C50.934,34.401,51.034,32.001,51.103,29.603z M46.405,21.008c0.131-2.664,0.331-4.063,0.6-4.197h0.2c0.266,0,0.531-0.032,0.799-0.1  c0.266-0.066,0.531-0.032,0.8,0.1c0.265,0.134,0.499,2.233,0.699,6.296c0.2,4.066,0.365,8.564,0.499,13.492  c0.034,1.44,0.063,2.936,0.088,4.485l-0.088-0.087l-0.799-1.6v0.4c0,0.4,0.066,0.733,0.2,0.999c-0.799-0.131-1.534-0.131-2.199,0  l-1.399-0.2l0.399-2.398l-0.469-0.058c0.022-0.791,0.046-1.586,0.069-2.341l0,0l0,0c0.066-2.146,0.132-4.145,0.199-5.997  C46.137,26.605,46.271,23.675,46.405,21.008z M45.406,21.208c0.131,2.667,0.2,5.596,0.2,8.795v5.847l-0.738,0.185  c0.089-5.653,0.138-11.903,0.138-18.825C45.137,17.21,45.271,18.544,45.406,21.208z M42.607,17.011  c0.018,0.297,0.033,0.571,0.05,0.863c-0.018-0.021-0.027-0.041-0.05-0.063C42.339,17.544,42.339,17.279,42.607,17.011z   M31.414,23.007c0.266-0.131,0.531-0.231,0.8-0.299c0.265-0.066,0.531-0.232,0.8-0.5l0.599,0.799v-0.199  c0.132-0.132,0.231-0.2,0.3-0.2c0.065,0,0.165-0.066,0.3-0.2l0.799-0.799h0.2c0.131,0,0.265-0.032,0.399-0.1  c0.131-0.066,0.266-0.1,0.4-0.1c0.131,0,0.2-0.065,0.2-0.2l0.399-0.399c0.131-0.266,0.4-0.6,0.799-1l0.4-0.2h0.2  c0.131,0,0.265-0.065,0.399-0.2c0.266-0.131,0.5-0.2,0.7-0.2c0.199,0,0.431-0.065,0.699-0.2c0.265,0,0.499-0.031,0.699-0.099  c0.2-0.066,0.431-0.1,0.699-0.1h0.601l0.2-0.2c0.131,0,0.231-0.032,0.299-0.1c0.066-0.066,0.166-0.1,0.3-0.1  c0.035-0.018,0.052-0.039,0.078-0.059c0.225,3.837,0.401,7.272,0.521,10.253c0.094,2.389,0.19,4.921,0.287,7.584  c-0.029,0.002-0.058,0.011-0.086,0.011c-0.534,0-0.934-0.2-1.2-0.601L41.408,34.8c-0.134-0.665-0.168-1.364-0.1-2.099  c0.066-0.73,0.232-1.23,0.5-1.499c0.131-0.266,0.065-0.565-0.2-0.899c-0.269-0.331-0.6-0.6-1-0.799c-0.4-0.2-0.699-0.3-0.899-0.3  s-0.168,0.268,0.1,0.799c0.531,0.934,0.599,1.734,0.2,2.399c-0.4-0.4-0.8-0.765-1.2-1.1c-0.4-0.331-0.799-0.631-1.2-0.899  c-0.534-0.4-0.934-0.731-1.199-1l-0.399-2.399l-4.598-3.598l-0.237-0.254C31.248,23.104,31.316,23.056,31.414,23.007z   M30.215,24.206l0.2-0.2c0.074-0.074,0.123-0.132,0.182-0.196c0.409,0.497,0.822,0.992,1.217,1.496  c1.2,1.534,2.33,2.833,3.398,3.898l2.998,3.998v0.2c-0.934-0.666-2.532-2.265-4.797-4.797c-1.008-1.125-2.053-2.271-3.114-3.423  C30.248,24.923,30.215,24.616,30.215,24.206z M25.917,26.904c0.066-0.065,0.231-0.1,0.5-0.1c0.131,0,0.199-0.065,0.199-0.199  c0,0.269,0.032,0.5,0.1,0.7c0.066,0.2,0.1,0.368,0.1,0.499v0.4c-0.134,0-0.269-0.066-0.399-0.2c-0.4-0.399-0.668-0.731-0.8-1  C25.749,27.004,25.849,26.974,25.917,26.904z M22.818,40.396c0.132-0.131,0.266-0.199,0.4-0.199c0.131,0,0.331-0.066,0.599-0.2  c0.266-0.131,0.631,0.168,1.1,0.899c0.465,0.734,0.899,1.568,1.299,2.499c0.531,1.068,1,2.333,1.399,3.797l-0.799-4.397  c-0.269-1.065-0.5-2.03-0.7-2.898c-0.2-0.865-0.3-1.365-0.3-1.5l-1.199-1.199l-1.6-1.999l0.2-0.2c0.131-0.131,0.231-0.2,0.3-0.2  c0.065,0,0.165-0.131,0.299-0.399c0.132-0.132,0.232-0.266,0.3-0.4c0.066-0.131,0.231-0.266,0.5-0.4c0,0.134,0.065,0.269,0.199,0.4  V34.8c0,0.134,0.066,0.2,0.2,0.2c0-0.131,0.066-0.266,0.2-0.4c0.131-0.131,0.2-0.231,0.2-0.299c0-0.066,0.131-0.232,0.399-0.5  c0.132-0.265,0.231-0.499,0.3-0.699c0.066-0.2,0.231-0.431,0.5-0.699c0.132-0.266,0.266-0.5,0.4-0.7  c0.131-0.199,0.331-0.431,0.6-0.699c0.266-0.4,0.631-0.8,1.1-1.2c0.276-0.237,0.506-0.474,0.712-0.71l2.786,20.898l2.198-18.189  c0.132,0.668,0.332,1.268,0.6,1.799c0.265,0.534,0.531,1.068,0.799,1.6c0.265,0.533,0.666,0.934,1.2,1.199  c0.799,0.668,1.331,0.999,1.599,0.999c0.266,0,0.6,0.334,1,1c0.4,0.535,0.4,1.134,0,1.8c-0.134,0.399-0.334,0.667-0.599,0.799h2.598  l-0.799,2.398l2.914-0.686c0.014,0.407,0.029,0.806,0.043,1.207l-0.159,0.478l0.182,0.163c0.072,1.954,0.145,3.836,0.217,5.634  c0.042,1.046,0.083,2.165,0.125,3.315c-0.309-0.064-0.618-0.161-0.924-0.316l-0.799-0.4c0,0.135,0.066,0.271,0.2,0.4  c0.131,0.133,0.331,0.468,0.599,1l-0.399,0.2c0,0.133,0.065,0.333,0.2,0.599c0,0.269,0.031,0.5,0.099,0.7  c0.066,0.198-0.034,0.434-0.299,0.698l-0.799,0.8c-0.668,0.269-1.333,0.434-1.999,0.501c-0.669,0.068-1.2-0.032-1.6-0.301  c-0.269-0.132-0.534-0.031-0.8,0.301c-0.268,0.333-0.468,0.7-0.599,1.099c-0.134,0.399-0.169,0.7-0.1,0.898  c0.065,0.2,0.3,0.1,0.699-0.299c0.4-0.4,0.8-0.6,1.2-0.6c0.399,0,0.799,0.068,1.2,0.199c-0.669,0.669-1.269,1.534-1.8,2.6  c-0.269,0.533-0.534,0.998-0.799,1.398l-2.198,0.599l-2.999,5.198l-2.839,3.416c-0.422-0.639-0.551-1.245-0.359-1.817  c0-0.265,0.031-0.432,0.1-0.498c0.066-0.067,0.1-0.167,0.1-0.301c0-0.132,0.065-0.267,0.2-0.399c-0.135,0-0.27-0.067-0.4-0.2  c-0.534,0-1-0.067-1.399-0.2c-0.269-0.13-0.5-0.2-0.699-0.2c-0.2,0-0.369-0.066-0.5-0.2c-0.269,0-0.4-0.064-0.4-0.2v-0.6v-1.199  c0-0.265,0.1-1.065,0.3-2.398c0.2-1.331,0.431-2.864,0.699-4.597c0.266-1.865,0.531-4.062,0.8-6.597  c-0.669,1.867-1.268,3.532-1.799,4.998c-0.535,1.334-1.034,2.497-1.499,3.498c-0.468,1-0.834,1.434-1.1,1.298  c-0.4,0-0.734,0.136-0.999,0.4c-0.074,0.075-0.148,0.174-0.222,0.289c0.006-0.03,0.022-0.061,0.022-0.089  c0-0.4,0.066-0.731,0.2-0.999c0-0.267,0.031-0.432,0.1-0.5c0.065-0.066,0.1-0.231,0.1-0.5l0.199-0.4  c-0.134,0-0.199-0.064-0.199-0.199c0-0.131-0.035-0.23-0.1-0.301c-0.069-0.064-0.1-0.229-0.1-0.5l-0.601-1.198  c-0.268-0.53-0.399-1.065-0.399-1.599c-0.269-0.53-0.469-1.131-0.6-1.799c-0.134-0.666-0.269-1.331-0.399-1.999l-0.2-0.4v-0.601  c-0.134-0.264-0.2-0.598-0.2-0.998c0-0.399-0.068-0.731-0.2-1c0.131-0.399,0.266-0.799,0.4-1.2c0.131-0.399,0.266-0.73,0.4-0.999  c0.265-0.265,0.431-0.53,0.499-0.8c0.066-0.265,0.166-0.531,0.3-0.799c0.131-0.265,0.231-0.499,0.3-0.699  c0.065-0.2,0.165-0.366,0.299-0.5c0.132-0.131,0.2-0.265,0.2-0.399l-0.6,0.599c-0.134,0.269-0.3,0.5-0.5,0.7  c-0.2,0.2-0.434,0.434-0.699,0.7c-0.269,0.268-0.469,0.533-0.6,0.799v-1v-0.2c0.131-0.265,0.266-0.499,0.4-0.699  c0.131-0.2,0.266-0.431,0.4-0.699c0.265-0.4,0.531-0.831,0.799-1.3c0.265-0.465,0.531-0.831,0.799-1.1  c0.131-0.131,0.2-0.265,0.2-0.4c0-0.131,0.065-0.265,0.2-0.399c0-0.131,0.065-0.2,0.199-0.2l-1.599-0.2l0.2-0.2  c-0.134,0,0.066-0.131,0.599-0.399L22.818,40.396z M18.221,41.596c0-0.931,0.066-1.73,0.2-2.398c0.265-0.8,0.465-1.465,0.6-1.999  l0.6-1.199c0-0.266,0.065-0.5,0.199-0.699c0.131-0.2,0.266-0.431,0.4-0.7c0.4-0.931,0.865-1.665,1.399-2.198  c0,0.533-0.4,1.799-1.199,3.798c-0.4,0.934-0.734,1.733-1,2.398c-0.269,0.668-0.468,1.333-0.599,1.999  c-0.27,0.799-0.469,1.399-0.601,1.799V41.596z"/></svg>